<mxfile host="app.diagrams.net" agent="Mozilla/5.0 (Windows NT 10.0; Win64; x64) AppleWebKit/537.36 (KHTML, like Gecko) Chrome/131.0.0.0 Safari/537.36" version="24.9.1">
  <diagram name="Page-1" id="nvgVDbkUr-Q73rS64mud">
    <mxGraphModel dx="1760" dy="1042" grid="1" gridSize="10" guides="1" tooltips="1" connect="1" arrows="1" fold="1" page="1" pageScale="1" pageWidth="827" pageHeight="1169" math="0" shadow="0">
      <root>
        <mxCell id="0" />
        <mxCell id="1" parent="0" />
        <mxCell id="62i8OGfVCfFYQrSGfKfU-52" style="edgeStyle=orthogonalEdgeStyle;rounded=0;orthogonalLoop=1;jettySize=auto;html=1;exitX=0.25;exitY=1;exitDx=0;exitDy=0;entryX=0.5;entryY=0;entryDx=0;entryDy=0;" edge="1" parent="1" source="62i8OGfVCfFYQrSGfKfU-10" target="62i8OGfVCfFYQrSGfKfU-13">
          <mxGeometry relative="1" as="geometry" />
        </mxCell>
        <mxCell id="62i8OGfVCfFYQrSGfKfU-62" style="edgeStyle=orthogonalEdgeStyle;rounded=0;orthogonalLoop=1;jettySize=auto;html=1;exitX=0.5;exitY=1;exitDx=0;exitDy=0;" edge="1" parent="1" source="62i8OGfVCfFYQrSGfKfU-10" target="62i8OGfVCfFYQrSGfKfU-14">
          <mxGeometry relative="1" as="geometry" />
        </mxCell>
        <mxCell id="62i8OGfVCfFYQrSGfKfU-10" value="Клиент" style="rounded=0;whiteSpace=wrap;html=1;" vertex="1" parent="1">
          <mxGeometry x="354" y="50" width="120" height="60" as="geometry" />
        </mxCell>
        <mxCell id="62i8OGfVCfFYQrSGfKfU-21" style="edgeStyle=orthogonalEdgeStyle;rounded=0;orthogonalLoop=1;jettySize=auto;html=1;exitX=1;exitY=0.5;exitDx=0;exitDy=0;entryX=0;entryY=0.5;entryDx=0;entryDy=0;" edge="1" parent="1" source="62i8OGfVCfFYQrSGfKfU-13" target="62i8OGfVCfFYQrSGfKfU-14">
          <mxGeometry relative="1" as="geometry" />
        </mxCell>
        <mxCell id="62i8OGfVCfFYQrSGfKfU-51" style="edgeStyle=orthogonalEdgeStyle;rounded=0;orthogonalLoop=1;jettySize=auto;html=1;exitX=0.5;exitY=1;exitDx=0;exitDy=0;entryX=0.5;entryY=0;entryDx=0;entryDy=0;" edge="1" parent="1" source="62i8OGfVCfFYQrSGfKfU-13" target="62i8OGfVCfFYQrSGfKfU-22">
          <mxGeometry relative="1" as="geometry" />
        </mxCell>
        <mxCell id="62i8OGfVCfFYQrSGfKfU-13" value="Размещение заказа" style="rounded=0;whiteSpace=wrap;html=1;" vertex="1" parent="1">
          <mxGeometry x="170" y="200" width="120" height="60" as="geometry" />
        </mxCell>
        <mxCell id="62i8OGfVCfFYQrSGfKfU-63" style="edgeStyle=orthogonalEdgeStyle;rounded=0;orthogonalLoop=1;jettySize=auto;html=1;exitX=0.75;exitY=0;exitDx=0;exitDy=0;entryX=0.75;entryY=1;entryDx=0;entryDy=0;" edge="1" parent="1" source="62i8OGfVCfFYQrSGfKfU-14" target="62i8OGfVCfFYQrSGfKfU-10">
          <mxGeometry relative="1" as="geometry" />
        </mxCell>
        <mxCell id="62i8OGfVCfFYQrSGfKfU-14" value="Проверка статуса &#xa;заказа" style="rounded=0;whiteSpace=wrap;html=1;" vertex="1" parent="1">
          <mxGeometry x="354" y="200" width="120" height="60" as="geometry" />
        </mxCell>
        <mxCell id="62i8OGfVCfFYQrSGfKfU-15" value="Обсуждение&#xa;рецептов" style="rounded=0;whiteSpace=wrap;html=1;" vertex="1" parent="1">
          <mxGeometry x="570" y="200" width="120" height="60" as="geometry" />
        </mxCell>
        <mxCell id="62i8OGfVCfFYQrSGfKfU-49" style="edgeStyle=orthogonalEdgeStyle;rounded=0;orthogonalLoop=1;jettySize=auto;html=1;exitX=0.75;exitY=1;exitDx=0;exitDy=0;" edge="1" parent="1" source="62i8OGfVCfFYQrSGfKfU-22" target="62i8OGfVCfFYQrSGfKfU-29">
          <mxGeometry relative="1" as="geometry" />
        </mxCell>
        <mxCell id="62i8OGfVCfFYQrSGfKfU-50" style="edgeStyle=orthogonalEdgeStyle;rounded=0;orthogonalLoop=1;jettySize=auto;html=1;exitX=0.25;exitY=1;exitDx=0;exitDy=0;entryX=0.5;entryY=0;entryDx=0;entryDy=0;" edge="1" parent="1" source="62i8OGfVCfFYQrSGfKfU-22" target="62i8OGfVCfFYQrSGfKfU-24">
          <mxGeometry relative="1" as="geometry" />
        </mxCell>
        <mxCell id="62i8OGfVCfFYQrSGfKfU-22" value="Менеджер" style="rounded=0;whiteSpace=wrap;html=1;" vertex="1" parent="1">
          <mxGeometry x="360" y="330" width="120" height="60" as="geometry" />
        </mxCell>
        <mxCell id="62i8OGfVCfFYQrSGfKfU-24" value="Обработка" style="rounded=0;whiteSpace=wrap;html=1;" vertex="1" parent="1">
          <mxGeometry x="170" y="460" width="120" height="60" as="geometry" />
        </mxCell>
        <mxCell id="62i8OGfVCfFYQrSGfKfU-29" value="Уведомление клиентов&#xa;о доставке" style="rounded=0;whiteSpace=wrap;html=1;" vertex="1" parent="1">
          <mxGeometry x="540" y="460" width="120" height="60" as="geometry" />
        </mxCell>
        <mxCell id="62i8OGfVCfFYQrSGfKfU-45" value="" style="edgeStyle=orthogonalEdgeStyle;rounded=0;orthogonalLoop=1;jettySize=auto;html=1;" edge="1" parent="1" source="62i8OGfVCfFYQrSGfKfU-30" target="62i8OGfVCfFYQrSGfKfU-35">
          <mxGeometry relative="1" as="geometry" />
        </mxCell>
        <mxCell id="62i8OGfVCfFYQrSGfKfU-30" value="Управление&#xa;графиком&#xa;доставки" style="rounded=0;whiteSpace=wrap;html=1;" vertex="1" parent="1">
          <mxGeometry x="360" y="460" width="120" height="60" as="geometry" />
        </mxCell>
        <mxCell id="62i8OGfVCfFYQrSGfKfU-32" value="" style="endArrow=none;html=1;rounded=0;entryX=0.5;entryY=1;entryDx=0;entryDy=0;" edge="1" parent="1" source="62i8OGfVCfFYQrSGfKfU-30" target="62i8OGfVCfFYQrSGfKfU-22">
          <mxGeometry width="50" height="50" relative="1" as="geometry">
            <mxPoint x="420" y="530" as="sourcePoint" />
            <mxPoint x="470" y="480" as="targetPoint" />
          </mxGeometry>
        </mxCell>
        <mxCell id="62i8OGfVCfFYQrSGfKfU-46" style="edgeStyle=orthogonalEdgeStyle;rounded=0;orthogonalLoop=1;jettySize=auto;html=1;exitX=0.25;exitY=1;exitDx=0;exitDy=0;entryX=0.5;entryY=0;entryDx=0;entryDy=0;" edge="1" parent="1" source="62i8OGfVCfFYQrSGfKfU-35" target="62i8OGfVCfFYQrSGfKfU-38">
          <mxGeometry relative="1" as="geometry" />
        </mxCell>
        <mxCell id="62i8OGfVCfFYQrSGfKfU-35" value="Водитель" style="rounded=0;whiteSpace=wrap;html=1;" vertex="1" parent="1">
          <mxGeometry x="360" y="585" width="120" height="60" as="geometry" />
        </mxCell>
        <mxCell id="62i8OGfVCfFYQrSGfKfU-61" style="edgeStyle=orthogonalEdgeStyle;rounded=0;orthogonalLoop=1;jettySize=auto;html=1;exitX=0.5;exitY=0;exitDx=0;exitDy=0;entryX=0.75;entryY=1;entryDx=0;entryDy=0;" edge="1" parent="1" source="62i8OGfVCfFYQrSGfKfU-36" target="62i8OGfVCfFYQrSGfKfU-35">
          <mxGeometry relative="1" as="geometry" />
        </mxCell>
        <mxCell id="62i8OGfVCfFYQrSGfKfU-36" value="Подтверждение&#xa;доставки" style="rounded=0;whiteSpace=wrap;html=1;" vertex="1" parent="1">
          <mxGeometry x="540" y="720" width="120" height="60" as="geometry" />
        </mxCell>
        <mxCell id="62i8OGfVCfFYQrSGfKfU-54" style="edgeStyle=orthogonalEdgeStyle;rounded=0;orthogonalLoop=1;jettySize=auto;html=1;exitX=0.5;exitY=1;exitDx=0;exitDy=0;entryX=0.5;entryY=0;entryDx=0;entryDy=0;" edge="1" parent="1" source="62i8OGfVCfFYQrSGfKfU-37" target="62i8OGfVCfFYQrSGfKfU-39">
          <mxGeometry relative="1" as="geometry" />
        </mxCell>
        <mxCell id="62i8OGfVCfFYQrSGfKfU-56" style="edgeStyle=orthogonalEdgeStyle;rounded=0;orthogonalLoop=1;jettySize=auto;html=1;exitX=1;exitY=0.5;exitDx=0;exitDy=0;entryX=0;entryY=0.5;entryDx=0;entryDy=0;" edge="1" parent="1" source="62i8OGfVCfFYQrSGfKfU-37" target="62i8OGfVCfFYQrSGfKfU-36">
          <mxGeometry relative="1" as="geometry" />
        </mxCell>
        <mxCell id="62i8OGfVCfFYQrSGfKfU-37" value="Доставка&#xa;продуктов" style="rounded=0;whiteSpace=wrap;html=1;" vertex="1" parent="1">
          <mxGeometry x="360" y="720" width="120" height="60" as="geometry" />
        </mxCell>
        <mxCell id="62i8OGfVCfFYQrSGfKfU-55" style="edgeStyle=orthogonalEdgeStyle;rounded=0;orthogonalLoop=1;jettySize=auto;html=1;exitX=1;exitY=0.5;exitDx=0;exitDy=0;entryX=0;entryY=0.5;entryDx=0;entryDy=0;" edge="1" parent="1" source="62i8OGfVCfFYQrSGfKfU-38" target="62i8OGfVCfFYQrSGfKfU-37">
          <mxGeometry relative="1" as="geometry" />
        </mxCell>
        <mxCell id="62i8OGfVCfFYQrSGfKfU-38" value="Получение&#xa;накладной" style="rounded=0;whiteSpace=wrap;html=1;" vertex="1" parent="1">
          <mxGeometry x="170" y="720" width="120" height="60" as="geometry" />
        </mxCell>
        <mxCell id="62i8OGfVCfFYQrSGfKfU-57" style="edgeStyle=orthogonalEdgeStyle;rounded=0;orthogonalLoop=1;jettySize=auto;html=1;exitX=0.25;exitY=1;exitDx=0;exitDy=0;entryX=0.5;entryY=0;entryDx=0;entryDy=0;" edge="1" parent="1" source="62i8OGfVCfFYQrSGfKfU-39" target="62i8OGfVCfFYQrSGfKfU-42">
          <mxGeometry relative="1" as="geometry" />
        </mxCell>
        <mxCell id="62i8OGfVCfFYQrSGfKfU-39" value="Фермер" style="rounded=0;whiteSpace=wrap;html=1;" vertex="1" parent="1">
          <mxGeometry x="360" y="880" width="120" height="60" as="geometry" />
        </mxCell>
        <mxCell id="62i8OGfVCfFYQrSGfKfU-40" value="Поставка&#xa;продуктов" style="rounded=0;whiteSpace=wrap;html=1;" vertex="1" parent="1">
          <mxGeometry x="540" y="1000" width="120" height="60" as="geometry" />
        </mxCell>
        <mxCell id="62i8OGfVCfFYQrSGfKfU-59" style="edgeStyle=orthogonalEdgeStyle;rounded=0;orthogonalLoop=1;jettySize=auto;html=1;exitX=1;exitY=0.5;exitDx=0;exitDy=0;entryX=0;entryY=0.5;entryDx=0;entryDy=0;" edge="1" parent="1" source="62i8OGfVCfFYQrSGfKfU-41" target="62i8OGfVCfFYQrSGfKfU-40">
          <mxGeometry relative="1" as="geometry" />
        </mxCell>
        <mxCell id="62i8OGfVCfFYQrSGfKfU-41" value="Согласование&#xa;условий поставки" style="rounded=0;whiteSpace=wrap;html=1;" vertex="1" parent="1">
          <mxGeometry x="360" y="1000" width="120" height="60" as="geometry" />
        </mxCell>
        <mxCell id="62i8OGfVCfFYQrSGfKfU-58" style="edgeStyle=orthogonalEdgeStyle;rounded=0;orthogonalLoop=1;jettySize=auto;html=1;exitX=1;exitY=0.5;exitDx=0;exitDy=0;" edge="1" parent="1" source="62i8OGfVCfFYQrSGfKfU-42" target="62i8OGfVCfFYQrSGfKfU-41">
          <mxGeometry relative="1" as="geometry" />
        </mxCell>
        <mxCell id="62i8OGfVCfFYQrSGfKfU-42" value="Обновление&#xa;продуктов" style="rounded=0;whiteSpace=wrap;html=1;" vertex="1" parent="1">
          <mxGeometry x="170" y="1000" width="120" height="60" as="geometry" />
        </mxCell>
        <mxCell id="62i8OGfVCfFYQrSGfKfU-43" value="" style="endArrow=none;html=1;rounded=0;exitX=1;exitY=0.5;exitDx=0;exitDy=0;entryX=0;entryY=0.5;entryDx=0;entryDy=0;" edge="1" parent="1" source="62i8OGfVCfFYQrSGfKfU-24" target="62i8OGfVCfFYQrSGfKfU-30">
          <mxGeometry width="50" height="50" relative="1" as="geometry">
            <mxPoint x="400" y="480" as="sourcePoint" />
            <mxPoint x="450" y="430" as="targetPoint" />
          </mxGeometry>
        </mxCell>
        <mxCell id="62i8OGfVCfFYQrSGfKfU-44" value="" style="endArrow=none;html=1;rounded=0;exitX=1;exitY=0.5;exitDx=0;exitDy=0;entryX=0;entryY=0.5;entryDx=0;entryDy=0;" edge="1" parent="1" source="62i8OGfVCfFYQrSGfKfU-30" target="62i8OGfVCfFYQrSGfKfU-29">
          <mxGeometry width="50" height="50" relative="1" as="geometry">
            <mxPoint x="300" y="500" as="sourcePoint" />
            <mxPoint x="370" y="500" as="targetPoint" />
          </mxGeometry>
        </mxCell>
        <mxCell id="62i8OGfVCfFYQrSGfKfU-60" style="edgeStyle=orthogonalEdgeStyle;rounded=0;orthogonalLoop=1;jettySize=auto;html=1;exitX=0.5;exitY=0;exitDx=0;exitDy=0;entryX=0.656;entryY=1.017;entryDx=0;entryDy=0;entryPerimeter=0;" edge="1" parent="1" source="62i8OGfVCfFYQrSGfKfU-40" target="62i8OGfVCfFYQrSGfKfU-39">
          <mxGeometry relative="1" as="geometry" />
        </mxCell>
      </root>
    </mxGraphModel>
  </diagram>
</mxfile>
